<mxfile host="app.diagrams.net" modified="2021-01-13T16:20:17.794Z" agent="5.0 (Macintosh; Intel Mac OS X 10_15_4) AppleWebKit/537.36 (KHTML, like Gecko) Chrome/87.0.4280.141 Safari/537.36" etag="ro88_ahhub7y7wTKZ2hV" version="14.1.9" type="github">
  <diagram id="Ffh66nCzOf2npK-qFxU4" name="Page-1">
    <mxGraphModel dx="946" dy="614" grid="1" gridSize="10" guides="1" tooltips="1" connect="1" arrows="1" fold="1" page="1" pageScale="1" pageWidth="827" pageHeight="1169" math="0" shadow="0">
      <root>
        <mxCell id="0" />
        <mxCell id="1" parent="0" />
        <mxCell id="FZ6P9qhFwqIsLmbFN7Yw-3" value="" style="rounded=0;whiteSpace=wrap;html=1;fontFamily=Lucida Console;fillColor=#f5f5f5;strokeColor=#666666;fontColor=#333333;" vertex="1" parent="1">
          <mxGeometry x="330" y="130" width="120" height="150" as="geometry" />
        </mxCell>
        <mxCell id="FZ6P9qhFwqIsLmbFN7Yw-4" value="保留" style="rounded=0;whiteSpace=wrap;html=1;fontFamily=Lucida Console;fillColor=#dae8fc;strokeColor=#6c8ebf;" vertex="1" parent="1">
          <mxGeometry x="330" y="360" width="120" height="40" as="geometry" />
        </mxCell>
        <mxCell id="FZ6P9qhFwqIsLmbFN7Yw-5" value="静态数据" style="rounded=0;whiteSpace=wrap;html=1;fontFamily=Lucida Console;fillColor=#f5f5f5;strokeColor=#666666;fontColor=#333333;" vertex="1" parent="1">
          <mxGeometry x="330" y="280" width="120" height="40" as="geometry" />
        </mxCell>
        <mxCell id="FZ6P9qhFwqIsLmbFN7Yw-6" value="正文（代码段）" style="rounded=0;whiteSpace=wrap;html=1;fontFamily=Lucida Console;fillColor=#f5f5f5;strokeColor=#666666;fontColor=#333333;" vertex="1" parent="1">
          <mxGeometry x="330" y="320" width="120" height="40" as="geometry" />
        </mxCell>
        <mxCell id="FZ6P9qhFwqIsLmbFN7Yw-7" value="栈" style="text;html=1;strokeColor=none;fillColor=none;align=center;verticalAlign=middle;whiteSpace=wrap;rounded=0;fontFamily=Lucida Console;" vertex="1" parent="1">
          <mxGeometry x="370" y="130" width="40" height="20" as="geometry" />
        </mxCell>
        <mxCell id="FZ6P9qhFwqIsLmbFN7Yw-8" value="动态数据" style="text;html=1;strokeColor=none;fillColor=none;align=center;verticalAlign=middle;whiteSpace=wrap;rounded=0;fontFamily=Lucida Console;" vertex="1" parent="1">
          <mxGeometry x="355" y="260" width="70" height="20" as="geometry" />
        </mxCell>
        <mxCell id="FZ6P9qhFwqIsLmbFN7Yw-9" value="1000 8000&lt;sub&gt;hex&lt;/sub&gt;" style="text;html=1;strokeColor=none;fillColor=none;align=center;verticalAlign=middle;whiteSpace=wrap;rounded=0;fontFamily=Lucida Console;" vertex="1" parent="1">
          <mxGeometry x="240" y="290" width="90" height="20" as="geometry" />
        </mxCell>
        <mxCell id="FZ6P9qhFwqIsLmbFN7Yw-10" value="1000 0000&lt;sub&gt;hex&lt;/sub&gt;" style="text;html=1;strokeColor=none;fillColor=none;align=center;verticalAlign=middle;whiteSpace=wrap;rounded=0;fontFamily=Lucida Console;" vertex="1" parent="1">
          <mxGeometry x="240" y="310" width="90" height="20" as="geometry" />
        </mxCell>
        <mxCell id="FZ6P9qhFwqIsLmbFN7Yw-11" value="0040 0000&lt;sub&gt;hex&lt;/sub&gt;" style="text;html=1;strokeColor=none;fillColor=none;align=center;verticalAlign=middle;whiteSpace=wrap;rounded=0;fontFamily=Lucida Console;" vertex="1" parent="1">
          <mxGeometry x="240" y="350" width="90" height="20" as="geometry" />
        </mxCell>
        <mxCell id="FZ6P9qhFwqIsLmbFN7Yw-12" value="7fff fffc&lt;sub&gt;hex&lt;/sub&gt;" style="text;html=1;strokeColor=none;fillColor=none;align=center;verticalAlign=middle;whiteSpace=wrap;rounded=0;fontFamily=Lucida Console;" vertex="1" parent="1">
          <mxGeometry x="240" y="120" width="90" height="20" as="geometry" />
        </mxCell>
        <mxCell id="FZ6P9qhFwqIsLmbFN7Yw-13" value="0" style="text;html=1;strokeColor=none;fillColor=none;align=center;verticalAlign=middle;whiteSpace=wrap;rounded=0;fontFamily=Lucida Console;" vertex="1" parent="1">
          <mxGeometry x="300" y="390" width="30" height="20" as="geometry" />
        </mxCell>
        <mxCell id="FZ6P9qhFwqIsLmbFN7Yw-14" value="" style="endArrow=classic;html=1;fontFamily=Lucida Console;" edge="1" parent="1">
          <mxGeometry width="50" height="50" relative="1" as="geometry">
            <mxPoint x="389.5" y="150" as="sourcePoint" />
            <mxPoint x="389.5" y="190" as="targetPoint" />
          </mxGeometry>
        </mxCell>
        <mxCell id="FZ6P9qhFwqIsLmbFN7Yw-16" value="" style="endArrow=classic;html=1;fontFamily=Lucida Console;" edge="1" parent="1">
          <mxGeometry width="50" height="50" relative="1" as="geometry">
            <mxPoint x="389.5" y="260" as="sourcePoint" />
            <mxPoint x="389.5" y="220" as="targetPoint" />
          </mxGeometry>
        </mxCell>
        <mxCell id="FZ6P9qhFwqIsLmbFN7Yw-18" style="edgeStyle=orthogonalEdgeStyle;rounded=0;orthogonalLoop=1;jettySize=auto;html=1;fontFamily=Lucida Console;" edge="1" parent="1" source="FZ6P9qhFwqIsLmbFN7Yw-17" target="FZ6P9qhFwqIsLmbFN7Yw-12">
          <mxGeometry relative="1" as="geometry" />
        </mxCell>
        <mxCell id="FZ6P9qhFwqIsLmbFN7Yw-17" value="栈指针" style="text;html=1;strokeColor=none;fillColor=none;align=center;verticalAlign=middle;whiteSpace=wrap;rounded=0;fontFamily=Lucida Console;" vertex="1" parent="1">
          <mxGeometry x="160" y="120" width="40" height="20" as="geometry" />
        </mxCell>
        <mxCell id="FZ6P9qhFwqIsLmbFN7Yw-20" style="edgeStyle=orthogonalEdgeStyle;rounded=0;orthogonalLoop=1;jettySize=auto;html=1;entryX=0;entryY=0.5;entryDx=0;entryDy=0;fontFamily=Lucida Console;" edge="1" parent="1" source="FZ6P9qhFwqIsLmbFN7Yw-19" target="FZ6P9qhFwqIsLmbFN7Yw-9">
          <mxGeometry relative="1" as="geometry" />
        </mxCell>
        <mxCell id="FZ6P9qhFwqIsLmbFN7Yw-19" value="全局变量指针" style="text;html=1;strokeColor=none;fillColor=none;align=center;verticalAlign=middle;whiteSpace=wrap;rounded=0;fontFamily=Lucida Console;" vertex="1" parent="1">
          <mxGeometry x="120" y="290" width="80" height="20" as="geometry" />
        </mxCell>
        <mxCell id="FZ6P9qhFwqIsLmbFN7Yw-22" style="edgeStyle=orthogonalEdgeStyle;rounded=0;orthogonalLoop=1;jettySize=auto;html=1;fontFamily=Lucida Console;" edge="1" parent="1" source="FZ6P9qhFwqIsLmbFN7Yw-21" target="FZ6P9qhFwqIsLmbFN7Yw-11">
          <mxGeometry relative="1" as="geometry" />
        </mxCell>
        <mxCell id="FZ6P9qhFwqIsLmbFN7Yw-21" value="程序计数器" style="text;html=1;strokeColor=none;fillColor=none;align=center;verticalAlign=middle;whiteSpace=wrap;rounded=0;fontFamily=Lucida Console;" vertex="1" parent="1">
          <mxGeometry x="130" y="350" width="70" height="20" as="geometry" />
        </mxCell>
      </root>
    </mxGraphModel>
  </diagram>
</mxfile>
